<svg width="96" height="121" viewBox="0 0 96 121" fill="none" xmlns="http://www.w3.org/2000/svg">
<path d="M3 93.9706V27C3 18.5992 3 14.3988 4.6349 11.1901C6.073 8.36771 8.36771 6.073 11.1901 4.6349C14.3988 3 18.5992 3 27 3H57.1135C60.5939 3 62.334 3 63.9812 3.37583C65.442 3.70913 66.8445 4.25939 68.1422 5.00831C69.6056 5.85282 70.8815 7.0361 73.4333 9.40264L73.4333 9.4027L80.6471 16.0927L84.9985 19.9842C87.9444 22.6186 89.4174 23.9359 90.4741 25.5182C91.4106 26.9205 92.1039 28.4707 92.5249 30.1035C93 31.946 93 33.922 93 37.874V60.4853V93.9706C93 102.371 93 106.572 91.3651 109.78C89.927 112.603 87.6323 114.898 84.8099 116.336C81.6012 117.971 77.4008 117.971 69 117.971H27C18.5992 117.971 14.3988 117.971 11.1901 116.336C8.36771 114.898 6.073 112.603 4.6349 109.78C3 106.572 3 102.371 3 93.9706Z" fill="#F5F5F5" stroke="black" stroke-width="5"/>
<path d="M63 3V7.51762C63 15.9184 63 20.1188 64.6349 23.3275C66.073 26.1499 68.3677 28.4446 71.1901 29.8827C74.3988 31.5176 78.5992 31.5176 87 31.5176H93" stroke="black" stroke-width="5"/>
<path d="M20.9988 48.2546H70.9988" stroke="black" stroke-width="5" stroke-linecap="round"/>
<path d="M20.9988 64.2546H70.9988" stroke="black" stroke-width="5" stroke-linecap="round"/>
<path d="M21 80H71" stroke="black" stroke-width="5" stroke-linecap="round"/>
</svg>
