<svg width="129" height="83" viewBox="0 0 129 83" fill="none" xmlns="http://www.w3.org/2000/svg">
<path d="M2.5 41.5C2.5 32.5254 2.51705 28.4733 3.29827 25.1838C5.87348 14.3401 14.3401 5.87348 25.1838 3.29827C28.4733 2.51705 32.5254 2.5 41.5 2.5H72.4894C84.0216 2.5 92.4786 2.50315 99.082 3.18886C105.642 3.87008 110.089 5.20314 113.695 7.67897L115.11 5.61787L113.695 7.67898C116.684 9.73069 119.269 12.3157 121.321 15.3046C123.797 18.9112 125.13 23.358 125.811 29.918C126.497 36.5214 126.5 44.9784 126.5 56.5106C126.5 61.9446 126.497 65.8279 126.184 68.8387C125.876 71.8062 125.289 73.6415 124.306 75.0743C123.436 76.3408 122.341 77.4361 121.074 78.3055C119.642 79.2891 117.806 79.876 114.839 80.1842C111.828 80.4968 107.945 80.5 102.511 80.5H41.5C32.5254 80.5 28.4733 80.4829 25.1838 79.7017C14.3401 77.1265 5.87348 68.6599 3.29827 57.8162C2.51705 54.5267 2.5 50.4746 2.5 41.5Z" stroke="black" stroke-width="5"/>
<path d="M42.0957 55V30.2539H47.2227V40.5078H57.9551V30.2539H63.1162V55H57.9551V44.7461H47.2227V55H42.0957ZM67.1836 55V36.4404H72.2422V55H67.1836ZM69.7129 34.0137C68.1748 34.0137 66.9443 32.8516 66.9443 31.4502C66.9443 30.0146 68.1748 28.8525 69.7129 28.8525C71.2168 28.8525 72.4473 30.0146 72.4473 31.4502C72.4473 32.8516 71.2168 34.0137 69.7129 34.0137ZM90.2549 30.2539L89.8105 47.583H85.4355L84.9912 30.2539H90.2549ZM87.6572 55.3076C86.0508 55.3076 84.752 54.0088 84.7861 52.4365C84.752 50.8643 86.0508 49.5996 87.6572 49.5996C89.1611 49.5996 90.4941 50.8643 90.4941 52.4365C90.4941 54.0088 89.1611 55.3076 87.6572 55.3076Z" fill="black"/>
</svg>
