<svg width="60" height="62" viewBox="0 0 60 62" fill="none" xmlns="http://www.w3.org/2000/svg">
<path d="M21.36 42.0399C21.36 41.4456 21.36 41.1485 21.3758 40.8976C21.6289 36.8749 24.835 33.6688 28.8577 33.4157C29.1086 33.3999 29.4057 33.3999 30 33.3999V33.3999C30.5943 33.3999 30.8914 33.3999 31.1423 33.4157C35.165 33.6688 38.3711 36.8749 38.6242 40.8976C38.64 41.1485 38.64 41.4456 38.64 42.0399V59.3199H21.36V42.0399Z" stroke="#1A1A1A" stroke-width="5"/>
<path d="M3 54.32V27.5713C3 26.1667 3.59077 24.8269 4.62779 23.8796L26.3429 4.04355C28.2356 2.31455 31.1294 2.29721 33.0428 4.0034L55.3277 23.8754C56.3916 24.8241 57 26.1817 57 27.6072V54.32C57 57.0814 54.7614 59.32 52 59.32H8C5.23858 59.32 3 57.0814 3 54.32Z" stroke="#1A1A1A" stroke-width="5" stroke-linecap="round"/>
</svg>
